<?xml version="1.0" encoding="UTF-8" standalone="no"?>
<svg
   xmlns:dc="http://purl.org/dc/elements/1.1/"
   xmlns:cc="http://creativecommons.org/ns#"
   xmlns:rdf="http://www.w3.org/1999/02/22-rdf-syntax-ns#"
   xmlns:svg="http://www.w3.org/2000/svg"
   xmlns="http://www.w3.org/2000/svg"
   xmlns:sodipodi="http://sodipodi.sourceforge.net/DTD/sodipodi-0.dtd"
   xmlns:inkscape="http://www.inkscape.org/namespaces/inkscape"
   xml:space="preserve"
   width="20mm"
   height="24mm"
   version="1.1"
   style="clip-rule:evenodd;fill-rule:evenodd;image-rendering:optimizeQuality;shape-rendering:geometricPrecision;text-rendering:geometricPrecision"
   viewBox="0 0 2000 2400"
   id="svg48"
   sodipodi:docname="fp.svg"
   inkscape:version="1.0.1 (3bc2e813f5, 2020-09-07)"><metadata
   id="metadata52"><rdf:RDF><cc:Work
       rdf:about=""><dc:format>image/svg+xml</dc:format><dc:type
         rdf:resource="http://purl.org/dc/dcmitype/StillImage" /><dc:title></dc:title></cc:Work></rdf:RDF></metadata><sodipodi:namedview
   pagecolor="#ffffff"
   bordercolor="#666666"
   borderopacity="1"
   objecttolerance="10"
   gridtolerance="10"
   guidetolerance="10"
   inkscape:pageopacity="0"
   inkscape:pageshadow="2"
   inkscape:window-width="1842"
   inkscape:window-height="1057"
   id="namedview50"
   showgrid="false"
   inkscape:zoom="2.2425443"
   inkscape:cx="98.23602"
   inkscape:cy="170.00253"
   inkscape:window-x="3910"
   inkscape:window-y="1072"
   inkscape:window-maximized="1"
   inkscape:current-layer="svg48" />
 <defs
   id="defs4">
  <style
   type="text/css"
   id="style2">
   <![CDATA[
    .fil0 {fill:#009846}
   ]]>
  </style>
 </defs>
 <g
   id="Vrstva_x0020_1"
   transform="matrix(1.8126888,0,0,1.8126888,15316.738,-30886.404)">
  <metadata
   id="CorelCorpID_0Corel-Layer" />
  <g
   id="_2569056776784">
   <path
   class="fil0"
   d="m -8148,17199 c -18,-10 -68,-62 -91,-40 -10,19 28,86 37,114 12,38 19,76 22,111 4,45 -3,157 -23,185 -96,-7 -145,3 -173,48 52,25 112,29 91,48 -24,11 -82,-20 -106,-25 -6,36 -21,78 -24,118 -7,78 -44,322 -28,388 l 68,17 c 25,6 8,-5 23,12 -4,2 0,12 -47,0 -19,-5 -30,-10 -47,-13 5,33 -9,254 102,111 l 125,-203 -29,-12 c -32,-9 -72,-17 -71,-36 18,-7 65,19 105,25 12,-8 11,-14 18,-28 6,-11 9,-17 15,-29 l 84,-182 c -43,-15 -135,-17 -139,-50 30,-9 57,14 145,24 18,-17 30,-70 24,-102 -4,-22 -18,-47 -39,-65 -32,-28 -50,-29 -68,-39 15,-48 121,-126 197,-156 49,-20 81,-24 68,-53 -27,-10 -42,-9 -77,-11 41,-24 140,-55 107,-100 -37,-10 -45,-6 -85,0 l 119,-98 c 15,-14 34,-21 20,-47 -99,-7 -161,44 -218,70 -17,-43 -59,-125 -114,-142 -29,11 -20,45 -16,69 5,30 15,61 25,91 z"
   id="path7" />
   <path
   class="fil0"
   d="m -8256,17900 c -5,-32 -13,-4 -117,-46 -46,-19 -79,-1 25,33 26,8 68,22 92,13 z"
   id="path9" />
  </g>
  <g
   id="_2569056770544">
   <g
   id="g14">
    <path
   class="fil0"
   d="m -7556,17757 c -46,-1 -88,19 -124,51 -6,-42 -22,-75 -22,-75 192,-26 138,-171 138,-171 -135,-6 -162,75 -164,128 -42,-44 -89,-70 -109,-79 -19,-8 -41,2 -49,21 -7,19 2,40 21,48 24,12 102,40 126,130 -37,-33 -80,-53 -127,-53 -124,0 -238,102 -198,303 32,164 152,303 275,303 33,0 58,-10 78,-26 20,16 45,26 78,26 128,-1 237,-132 275,-303 39,-173 -51,-300 -198,-303 z"
   id="path12" />
   </g>
   <g
   id="g16">
   </g>
   <g
   id="g18">
   </g>
   <g
   id="g20">
   </g>
   <g
   id="g22">
   </g>
   <g
   id="g24">
   </g>
   <g
   id="g26">
   </g>
   <g
   id="g28">
   </g>
   <g
   id="g30">
   </g>
   <g
   id="g32">
   </g>
   <g
   id="g34">
   </g>
   <g
   id="g36">
   </g>
   <g
   id="g38">
   </g>
   <g
   id="g40">
   </g>
   <g
   id="g42">
   </g>
   <g
   id="g44">
   </g>
  </g>
 </g>
</svg>
