<?xml version="1.0" encoding="UTF-8" standalone="no"?>
<svg
   xmlns:dc="http://purl.org/dc/elements/1.1/"
   xmlns:cc="http://creativecommons.org/ns#"
   xmlns:rdf="http://www.w3.org/1999/02/22-rdf-syntax-ns#"
   xmlns:svg="http://www.w3.org/2000/svg"
   xmlns="http://www.w3.org/2000/svg"
   xmlns:sodipodi="http://sodipodi.sourceforge.net/DTD/sodipodi-0.dtd"
   xmlns:inkscape="http://www.inkscape.org/namespaces/inkscape"
   xml:space="preserve"
   width="19.5mm"
   height="24mm"
   version="1.1"
   style="clip-rule:evenodd;fill-rule:evenodd;image-rendering:optimizeQuality;shape-rendering:geometricPrecision;text-rendering:geometricPrecision"
   viewBox="0 0 1950 2400"
   id="svg43"
   sodipodi:docname="h.svg"
   inkscape:version="1.0.1 (3bc2e813f5, 2020-09-07)"><metadata
   id="metadata47"><rdf:RDF><cc:Work
       rdf:about=""><dc:format>image/svg+xml</dc:format><dc:type
         rdf:resource="http://purl.org/dc/dcmitype/StillImage" /><dc:title></dc:title></cc:Work></rdf:RDF></metadata><sodipodi:namedview
   pagecolor="#ffffff"
   bordercolor="#666666"
   borderopacity="1"
   objecttolerance="10"
   gridtolerance="10"
   guidetolerance="10"
   inkscape:pageopacity="0"
   inkscape:pageshadow="2"
   inkscape:window-width="1842"
   inkscape:window-height="1057"
   id="namedview45"
   showgrid="false"
   inkscape:zoom="6.3428732"
   inkscape:cx="33.217286"
   inkscape:cy="43.59892"
   inkscape:window-x="3910"
   inkscape:window-y="1072"
   inkscape:window-maximized="1"
   inkscape:current-layer="svg43" />
 <defs
   id="defs4">
  <style
   type="text/css"
   id="style2">
   <![CDATA[
    .fil0 {fill:#434242}
   ]]>
  </style>
 </defs>
 <g
   id="Vrstva_x0020_1"
   transform="matrix(2.1998167,0,0,2.1998167,49009.031,-37925.069)">
  <metadata
   id="CorelCorpID_0Corel-Layer" />
  <g
   id="_1257244077760">
   <g
   id="g9">
    <path
   class="fil0"
   d="m -21508,17587 106,-170 c 4,-6 6,-14 6,-21 v -114 c 0,-22 -18,-40 -40,-40 h -108 c -23,0 -42,18 -42,40 v 61 c 0,9 -7,17 -16,17 h -109 c -9,0 -17,-8 -17,-17 v -61 c 0,-22 -18,-40 -41,-40 h -131 c -23,0 -41,18 -41,40 v 61 c 0,9 -8,17 -17,17 h -109 c -9,0 -16,-8 -16,-17 v -61 c 0,-22 -19,-40 -42,-40 h -108 c -22,0 -40,18 -40,40 v 114 c 0,7 2,15 6,21 l 106,170 c 4,7 6,15 6,22 v 464 c 0,14 -7,28 -20,35 l -79,47 c -12,8 -19,21 -19,35 v 102 c 0,23 18,41 40,41 h 797 c 22,0 40,-18 40,-41 v -102 c 0,-14 -7,-27 -19,-35 l -79,-47 c -13,-7 -20,-21 -20,-35 v -464 c 0,-7 2,-15 6,-22 z m -220,241 c 0,17 -13,31 -30,31 h -153 c -17,0 -30,-14 -30,-31 v -131 c 0,-58 47,-105 105,-105 h 3 c 58,0 105,47 105,105 z"
   id="path7" />
   </g>
   <g
   id="g11">
   </g>
   <g
   id="g13">
   </g>
   <g
   id="g15">
   </g>
   <g
   id="g17">
   </g>
   <g
   id="g19">
   </g>
   <g
   id="g21">
   </g>
   <g
   id="g23">
   </g>
   <g
   id="g25">
   </g>
   <g
   id="g27">
   </g>
   <g
   id="g29">
   </g>
   <g
   id="g31">
   </g>
   <g
   id="g33">
   </g>
   <g
   id="g35">
   </g>
   <g
   id="g37">
   </g>
   <g
   id="g39">
   </g>
  </g>
 </g>
</svg>
