<?xml version="1.0" encoding="UTF-8" standalone="no"?>
<svg
   xmlns:dc="http://purl.org/dc/elements/1.1/"
   xmlns:cc="http://creativecommons.org/ns#"
   xmlns:rdf="http://www.w3.org/1999/02/22-rdf-syntax-ns#"
   xmlns:svg="http://www.w3.org/2000/svg"
   xmlns="http://www.w3.org/2000/svg"
   xmlns:sodipodi="http://sodipodi.sourceforge.net/DTD/sodipodi-0.dtd"
   xmlns:inkscape="http://www.inkscape.org/namespaces/inkscape"
   xml:space="preserve"
   width="29.5mm"
   height="24mm"
   version="1.1"
   style="clip-rule:evenodd;fill-rule:evenodd;image-rendering:optimizeQuality;shape-rendering:geometricPrecision;text-rendering:geometricPrecision"
   viewBox="0 0 2950 2400"
   id="svg47"
   sodipodi:docname="m.svg"
   inkscape:version="1.0.1 (3bc2e813f5, 2020-09-07)"><metadata
   id="metadata51"><rdf:RDF><cc:Work
       rdf:about=""><dc:format>image/svg+xml</dc:format><dc:type
         rdf:resource="http://purl.org/dc/dcmitype/StillImage" /><dc:title></dc:title></cc:Work></rdf:RDF></metadata><sodipodi:namedview
   pagecolor="#ffffff"
   bordercolor="#666666"
   borderopacity="1"
   objecttolerance="10"
   gridtolerance="10"
   guidetolerance="10"
   inkscape:pageopacity="0"
   inkscape:pageshadow="2"
   inkscape:window-width="1842"
   inkscape:window-height="1057"
   id="namedview49"
   showgrid="false"
   inkscape:zoom="6.3428732"
   inkscape:cx="73.107929"
   inkscape:cy="51.527864"
   inkscape:window-x="3910"
   inkscape:window-y="1072"
   inkscape:window-maximized="1"
   inkscape:current-layer="svg47" />
 <defs
   id="defs4">
  <style
   type="text/css"
   id="style2">
   <![CDATA[
    .fil0 {fill:#898989}
   ]]>
  </style>
 </defs>
 <g
   id="Vrstva_x0020_1"
   transform="matrix(2.2738039,0,0,2.2738039,40851.929,-39008.243)">
  <metadata
   id="CorelCorpID_0Corel-Layer" />
  <g
   id="_2568998496800">
   <g
   id="g13">
    <path
   class="fil0"
   d="m -16711,18130 h -27 -1154 -26 c -23,0 -41,18 -41,41 0,22 18,40 41,40 h 67 1073 67 c 22,0 40,-18 40,-40 0,-23 -18,-41 -40,-41 z"
   id="path7" />
    <path
   class="fil0"
   d="m -17816,17594 v 403 h -26 c -22,0 -40,18 -40,40 v 26 h 1135 v -26 c 0,-22 -18,-40 -40,-40 h -26 v -403 h -212 v 403 h -184 v -403 h -212 v 403 h -184 v -403 z"
   id="path9" />
    <path
   class="fil0"
   d="m -17878,17527 h 1127 c 0,0 0,0 0,0 22,0 40,-18 40,-40 0,-17 -10,-30 -24,-37 l -561,-290 c -12,-6 -26,-6 -37,0 l -564,291 c -16,9 -25,27 -20,45 4,18 20,31 39,31 z"
   id="path11" />
   </g>
   <g
   id="g15">
   </g>
   <g
   id="g17">
   </g>
   <g
   id="g19">
   </g>
   <g
   id="g21">
   </g>
   <g
   id="g23">
   </g>
   <g
   id="g25">
   </g>
   <g
   id="g27">
   </g>
   <g
   id="g29">
   </g>
   <g
   id="g31">
   </g>
   <g
   id="g33">
   </g>
   <g
   id="g35">
   </g>
   <g
   id="g37">
   </g>
   <g
   id="g39">
   </g>
   <g
   id="g41">
   </g>
   <g
   id="g43">
   </g>
  </g>
 </g>
</svg>
