<?xml version="1.0" encoding="UTF-8" standalone="no"?>
<svg
   xmlns:dc="http://purl.org/dc/elements/1.1/"
   xmlns:cc="http://creativecommons.org/ns#"
   xmlns:rdf="http://www.w3.org/1999/02/22-rdf-syntax-ns#"
   xmlns:svg="http://www.w3.org/2000/svg"
   xmlns="http://www.w3.org/2000/svg"
   xmlns:sodipodi="http://sodipodi.sourceforge.net/DTD/sodipodi-0.dtd"
   xmlns:inkscape="http://www.inkscape.org/namespaces/inkscape"
   xml:space="preserve"
   width="26.5mm"
   height="24mm"
   version="1.1"
   style="clip-rule:evenodd;fill-rule:evenodd;image-rendering:optimizeQuality;shape-rendering:geometricPrecision;text-rendering:geometricPrecision"
   viewBox="0 0 2650 2400"
   id="svg13"
   sodipodi:docname="p.svg"
   inkscape:version="1.0.1 (3bc2e813f5, 2020-09-07)"><metadata
   id="metadata17"><rdf:RDF><cc:Work
       rdf:about=""><dc:format>image/svg+xml</dc:format><dc:type
         rdf:resource="http://purl.org/dc/dcmitype/StillImage" /><dc:title></dc:title></cc:Work></rdf:RDF></metadata><sodipodi:namedview
   pagecolor="#ffffff"
   bordercolor="#666666"
   borderopacity="1"
   objecttolerance="10"
   gridtolerance="10"
   guidetolerance="10"
   inkscape:pageopacity="0"
   inkscape:pageshadow="2"
   inkscape:window-width="1842"
   inkscape:window-height="1057"
   id="namedview15"
   showgrid="false"
   inkscape:zoom="6.3428732"
   inkscape:cx="50.214809"
   inkscape:cy="67.822117"
   inkscape:window-x="3910"
   inkscape:window-y="1072"
   inkscape:window-maximized="1"
   inkscape:current-layer="svg13" />
 <defs
   id="defs4">
  <style
   type="text/css"
   id="style2">
   <![CDATA[
    .fil0 {fill:#0E602E}
   ]]>
  </style>
 </defs>
 <g
   id="Vrstva_x0020_1"
   transform="matrix(2.0497603,0,0,2.0497603,27740.859,-35027.091)">
  <metadata
   id="CorelCorpID_0Corel-Layer" />
  <g
   id="_2569035919248">
   <path
   class="fil0"
   d="m -13263,17300 c 0,25 27,21 52,21 -2,15 -46,74 -57,90 -7,10 -13,19 -20,30 -12,17 -79,112 -79,118 0,35 18,31 63,31 -2,15 -38,58 -47,70 l -62,85 c -12,18 -58,73 -58,88 -2,49 86,8 73,35 0,1 -4,8 -5,9 -2,4 -3,7 -5,10 -4,7 -7,12 -11,20 l -95,169 c -4,7 -9,12 -11,21 -3,14 6,31 24,31 h 326 v 114 c 0,8 12,20 26,20 h 95 c 17,0 26,-14 26,-31 v -103 h 99 c 0,-23 -9,-17 8,-51 11,-21 69,-119 72,-130 -29,-3 -39,-25 -39,-52 0,-23 55,-86 72,-112 9,-13 18,-23 26,-35 -11,-18 -24,-34 -36,-52 -7,-9 -12,-15 -19,-25 l -48,-66 c -29,-37 57,9 57,-41 0,-14 -120,-183 -139,-211 -9,-14 -18,-22 -19,-32 38,0 73,0 40,-43 l -94,-128 c -32,-44 -50,-82 -80,-38 -14,22 -135,178 -135,188 z"
   id="path7" />
   <path
   class="fil0"
   d="m -12691,17502 h 33 c -1,12 -52,83 -60,95 -11,16 -21,29 -32,46 -5,8 -29,40 -29,48 0,24 25,20 49,20 -3,11 -55,81 -65,94 l -59,80 c -11,15 -9,34 23,33 19,0 35,-5 27,11 l -65,117 c -6,10 -11,19 -17,29 -9,15 -15,23 -15,37 0,9 11,16 21,16 h 248 v 109 c 0,35 44,25 93,25 13,0 24,-10 24,-23 v -111 h 248 c 14,0 21,-9 21,-21 0,-10 -18,-38 -24,-46 -8,-16 -17,-32 -25,-47 -5,-8 -10,-16 -13,-23 l -26,-47 c -5,-8 -10,-14 -11,-26 31,0 82,8 44,-43 l -100,-138 c -6,-9 -14,-15 -16,-26 29,0 49,4 49,-23 0,-6 -80,-121 -92,-138 -7,-10 -29,-37 -30,-48 h 34 c 12,-17 15,-9 -21,-57 l -75,-103 c -26,-34 -35,-10 -59,23 l -66,89 c -22,30 -27,29 -14,48 z"
   id="path9" />
  </g>
 </g>
</svg>
