<?xml version="1.0" encoding="UTF-8" standalone="no"?>
<svg
   xmlns:dc="http://purl.org/dc/elements/1.1/"
   xmlns:cc="http://creativecommons.org/ns#"
   xmlns:rdf="http://www.w3.org/1999/02/22-rdf-syntax-ns#"
   xmlns:svg="http://www.w3.org/2000/svg"
   xmlns="http://www.w3.org/2000/svg"
   xmlns:sodipodi="http://sodipodi.sourceforge.net/DTD/sodipodi-0.dtd"
   xmlns:inkscape="http://www.inkscape.org/namespaces/inkscape"
   xml:space="preserve"
   width="23mm"
   height="24mm"
   version="1.1"
   style="clip-rule:evenodd;fill-rule:evenodd;image-rendering:optimizeQuality;shape-rendering:geometricPrecision;text-rendering:geometricPrecision"
   viewBox="0 0 2300 2400"
   id="svg30"
   sodipodi:docname="pzd.svg"
   inkscape:version="1.0.1 (3bc2e813f5, 2020-09-07)"><metadata
   id="metadata34"><rdf:RDF><cc:Work
       rdf:about=""><dc:format>image/svg+xml</dc:format><dc:type
         rdf:resource="http://purl.org/dc/dcmitype/StillImage" /><dc:title></dc:title></cc:Work></rdf:RDF></metadata><sodipodi:namedview
   pagecolor="#ffffff"
   bordercolor="#666666"
   borderopacity="1"
   objecttolerance="10"
   gridtolerance="10"
   guidetolerance="10"
   inkscape:pageopacity="0"
   inkscape:pageshadow="2"
   inkscape:window-width="1842"
   inkscape:window-height="1057"
   id="namedview32"
   showgrid="false"
   inkscape:zoom="6.3428732"
   inkscape:cx="40.267859"
   inkscape:cy="62.076795"
   inkscape:window-x="3910"
   inkscape:window-y="1072"
   inkscape:window-maximized="1"
   inkscape:current-layer="svg30" />
 <defs
   id="defs4"><style
     type="text/css"
     id="style2">
   <![CDATA[
    .fil1 {fill:#FEFEFE}
    .fil0 {fill:#7E71B1}
   ]]>
  </style></defs>
 <g
   id="Vrstva_x0020_1"
   transform="matrix(1.3673476,0,0,1.3673476,1628.7189,-23388.176)">
  <metadata
   id="CorelCorpID_0Corel-Layer" />
  <polygon
   class="fil0"
   points="-1180,18041 -1182,18278 484,18279 485,18041 "
   id="polygon7" />
  <polygon
   class="fil0"
   points="-1181,18332 -1182,18569 485,18570 485,18332 "
   id="polygon9" />
  <polygon
   class="fil0"
   points="-1182,18622 -1182,18859 485,18860 485,18623 "
   id="polygon11" />
  <path
   class="fil0"
   d="m -8,17653 -24,51 c -43,-17 -70,-48 -130,-57 -60,-9 -115,9 -147,43 -90,92 -68,200 -61,297 l 640,1 c 20,-98 33,-166 -30,-235 -17,-18 -17,-20 -40,-32 -94,-48 -142,-8 -197,-12 40,-85 72,-79 97,-114 -8,-26 -5,-13 -21,-32 -25,7 -29,14 -43,30 l -15,15 c -1,-76 -19,-113 -63,-143 -21,-14 -118,-52 -147,-59 21,162 5,227 181,247 z"
   id="path13" />
  <path
   class="fil0"
   d="m -982,17177 c -101,-4 -32,63 -10,101 l -31,11 c -2,42 35,48 61,74 -64,59 27,48 86,92 20,14 48,59 58,96 -28,-13 -75,-28 -95,-49 -21,-22 -47,-66 -88,-61 -9,14 3,-5 -7,14 l -10,18 c -37,-23 -54,-13 -71,20 -43,1 -54,0 -55,39 0,19 8,0 -11,24 -30,36 -6,55 39,58 l 3,37 c 35,6 58,-12 79,-20 14,24 -2,8 17,22 27,-4 36,-21 47,-36 l 11,9 c 42,25 38,-36 55,-50 27,-11 50,-1 66,17 17,17 25,46 42,63 l 65,-24 c -4,-33 -22,-77 -1,-111 26,-41 49,3 98,3 l 8,-30 c 44,4 69,13 59,-34 42,-9 101,-24 54,-64 38,-44 32,-65 -29,-72 -9,-21 -2,-27 -27,-27 -21,-1 -30,12 -38,23 -51,-9 -47,-16 -79,32 -11,-7 0,-1 -10,-7 -64,-39 -28,81 -60,136 l -31,56 c -12,-53 -26,-88 -2,-145 14,-35 75,-89 -6,-88 26,-110 16,-101 -34,-89 0,-47 -2,-134 -69,-70 -13,-15 -29,-43 -58,-40 -30,3 -28,40 -26,72 z"
   id="path15" />
  <path
   class="fil0"
   d="m -876,17853 c 49,3 67,-1 111,-9 -20,23 -72,44 -100,52 l 42,92 h 349 l -27,-130 c -44,12 -58,21 -107,23 47,-22 61,-33 95,-65 -4,-42 -37,-102 -57,-127 -62,-78 -208,-19 -273,25 -44,31 -45,78 -33,139 z"
   id="path17" />
  <path
   class="fil0"
   d="m -308,17917 c 11,-42 47,-93 69,-118 39,-45 99,-57 118,-71 -67,-20 -119,-16 -154,30 -21,28 -31,75 -36,113 l -1,33 c 1,11 0,7 4,13 z"
   id="path19" />
  <path
   class="fil1"
   d="m -1062,18124 c -46,22 -21,93 32,73 46,-18 19,-98 -32,-73 z"
   id="path21" />
  <path
   class="fil0"
   d="m -1061,18705 c -49,23 -22,93 31,72 48,-19 17,-95 -31,-72 z"
   id="path23" />
  <path
   class="fil0"
   d="m 336,18704 c -52,18 -22,95 32,73 40,-16 17,-91 -32,-73 z"
   id="path25" />
  <path
   class="fil1"
   d="m 330,18197 c 78,11 68,-60 37,-73 -24,-11 -47,1 -54,17 -11,27 5,41 17,56 z"
   id="path27" />
 </g>
</svg>
