<?xml version="1.0" encoding="UTF-8" standalone="no"?>
<svg
   xmlns:dc="http://purl.org/dc/elements/1.1/"
   xmlns:cc="http://creativecommons.org/ns#"
   xmlns:rdf="http://www.w3.org/1999/02/22-rdf-syntax-ns#"
   xmlns:svg="http://www.w3.org/2000/svg"
   xmlns="http://www.w3.org/2000/svg"
   xmlns:sodipodi="http://sodipodi.sourceforge.net/DTD/sodipodi-0.dtd"
   xmlns:inkscape="http://www.inkscape.org/namespaces/inkscape"
   xml:space="preserve"
   width="24mm"
   height="24mm"
   version="1.1"
   style="clip-rule:evenodd;fill-rule:evenodd;image-rendering:optimizeQuality;shape-rendering:geometricPrecision;text-rendering:geometricPrecision"
   viewBox="0 0 2400 2400"
   id="svg18"
   sodipodi:docname="r.svg"
   inkscape:version="1.0.1 (3bc2e813f5, 2020-09-07)"><metadata
   id="metadata22"><rdf:RDF><cc:Work
       rdf:about=""><dc:format>image/svg+xml</dc:format><dc:type
         rdf:resource="http://purl.org/dc/dcmitype/StillImage" /><dc:title></dc:title></cc:Work></rdf:RDF></metadata><sodipodi:namedview
   pagecolor="#ffffff"
   bordercolor="#666666"
   borderopacity="1"
   objecttolerance="10"
   gridtolerance="10"
   guidetolerance="10"
   inkscape:pageopacity="0"
   inkscape:pageshadow="2"
   inkscape:window-width="1842"
   inkscape:window-height="1057"
   id="namedview20"
   showgrid="false"
   inkscape:zoom="3.1714366"
   inkscape:cx="105.74298"
   inkscape:cy="85.361622"
   inkscape:window-x="3910"
   inkscape:window-y="1072"
   inkscape:window-maximized="1"
   inkscape:current-layer="svg18" />
 <defs
   id="defs4">
  <style
   type="text/css"
   id="style2">
   <![CDATA[
    .fil1 {fill:#523D26}
    .fil0 {fill:#523D26;fill-rule:nonzero}
   ]]>
  </style>
 </defs>
 <g
   id="Vrstva_x0020_1"
   transform="matrix(2.0408163,0,0,2.0408163,-44093.876,-35110.203)">
  <metadata
   id="CorelCorpID_0Corel-Layer" />
  <g
   id="_2569150494608">
   <g
   id="Page-1">
    <g
   id="_005---Potters-Wheel">
     <path
   id="Shape"
   class="fil0"
   d="m 21858,17812 c -1,93 27,185 81,261 3,4 7,7 12,8 79,18 161,26 242,26 82,0 164,-8 243,-26 5,-1 9,-4 12,-8 54,-76 82,-167 81,-260 3,-92 -26,-181 -81,-255 -33,-47 -66,-96 -66,-165 -2,-27 3,-54 13,-79 -67,11 -134,16 -202,16 -67,0 -134,-5 -201,-16 10,24 14,51 13,78 0,70 -34,119 -66,166 -55,73 -84,163 -81,254 z m 169,-280 c 5,-11 17,-16 28,-11 44,14 91,21 138,19 47,2 94,-5 139,-19 11,-5 23,0 28,11 4,11 -1,23 -11,27 -50,18 -103,25 -156,23 -52,2 -105,-5 -155,-23 -10,-4 -15,-16 -11,-27 z m -83,397 c 3,-5 7,-9 13,-10 5,-2 11,-1 16,2 0,0 75,39 220,39 146,0 221,-39 221,-39 10,-6 23,-2 29,8 5,10 1,23 -9,28 -3,2 -83,45 -241,45 -157,0 -237,-43 -241,-45 -4,-2 -8,-7 -10,-12 -1,-5 -1,-11 2,-16 z" />
     <ellipse
   id="Oval"
   class="fil1"
   cx="22193"
   cy="17246"
   rx="271"
   ry="42" />
     <path
   id="Path"
   class="fil1"
   d="m 22193,18212 c 365,0 588,-86 588,-147 0,-34 -71,-82 -229,-114 -15,52 -38,102 -70,147 -9,12 -22,20 -36,24 -83,18 -168,27 -253,27 -84,0 -169,-9 -252,-27 -14,-4 -27,-12 -36,-24 -32,-45 -56,-94 -70,-147 -158,32 -229,80 -229,114 0,61 223,147 587,147 z" />
     <path
   id="Path_0"
   class="fil1"
   d="m 22151,18337 v 43 h 84 v -43 c -14,1 -28,1 -42,1 -14,0 -28,0 -42,-1 z" />
     <path
   id="Path_1"
   class="fil1"
   d="m 21606,18136 v 13 c 0,61 223,147 587,147 365,0 588,-86 588,-147 v -13 c -97,77 -348,118 -588,118 -239,0 -490,-41 -587,-118 z" />
     <path
   id="Path_2"
   class="fil1"
   d="m 21753,17834 c 11,0 21,-9 21,-21 0,-69 13,-138 38,-203 16,-35 35,-68 58,-99 31,-46 51,-77 51,-117 0,-6 -3,-11 -7,-15 -4,-4 -9,-6 -15,-6 -11,0 -20,10 -20,21 0,27 -13,48 -44,93 -24,33 -45,69 -62,107 -27,70 -41,144 -41,219 0,6 2,11 6,15 4,4 9,6 15,6 z" />
     <path
   id="Path_3"
   class="fil1"
   d="m 22574,17610 c 26,64 39,132 39,202 0,11 10,21 21,21 12,0 21,-10 21,-21 0,-75 -14,-149 -42,-218 -16,-38 -37,-74 -61,-107 -29,-42 -44,-65 -44,-94 0,-6 -2,-11 -6,-15 -4,-4 -9,-6 -15,-6 v 0 c -11,0 -21,9 -21,20 0,42 19,73 51,119 23,31 42,64 57,99 z" />
    </g>
   </g>
  </g>
 </g>
</svg>
