<?xml version="1.0" encoding="UTF-8" standalone="no"?>
<svg
   xmlns:dc="http://purl.org/dc/elements/1.1/"
   xmlns:cc="http://creativecommons.org/ns#"
   xmlns:rdf="http://www.w3.org/1999/02/22-rdf-syntax-ns#"
   xmlns:svg="http://www.w3.org/2000/svg"
   xmlns="http://www.w3.org/2000/svg"
   xmlns:sodipodi="http://sodipodi.sourceforge.net/DTD/sodipodi-0.dtd"
   xmlns:inkscape="http://www.inkscape.org/namespaces/inkscape"
   xml:space="preserve"
   width="24mm"
   height="24mm"
   version="1.1"
   style="clip-rule:evenodd;fill-rule:evenodd;image-rendering:optimizeQuality;shape-rendering:geometricPrecision;text-rendering:geometricPrecision"
   viewBox="0 0 2400 2400"
   id="svg15"
   sodipodi:docname="u.svg"
   inkscape:version="1.0.1 (3bc2e813f5, 2020-09-07)"><metadata
   id="metadata19"><rdf:RDF><cc:Work
       rdf:about=""><dc:format>image/svg+xml</dc:format><dc:type
         rdf:resource="http://purl.org/dc/dcmitype/StillImage" /><dc:title></dc:title></cc:Work></rdf:RDF></metadata><sodipodi:namedview
   pagecolor="#ffffff"
   bordercolor="#666666"
   borderopacity="1"
   objecttolerance="10"
   gridtolerance="10"
   guidetolerance="10"
   inkscape:pageopacity="0"
   inkscape:pageshadow="2"
   inkscape:window-width="1842"
   inkscape:window-height="1057"
   id="namedview17"
   showgrid="false"
   inkscape:zoom="4.4850886"
   inkscape:cx="94.073454"
   inkscape:cy="76.011482"
   inkscape:window-x="3910"
   inkscape:window-y="1072"
   inkscape:window-maximized="1"
   inkscape:current-layer="svg15" />
 <defs
   id="defs4">
  <style
   type="text/css"
   id="style2">
   <![CDATA[
    .fil0 {fill:#4280B3}
   ]]>
  </style>
 </defs>
 <g
   id="Vrstva_x0020_1"
   transform="matrix(1.8348797,0,0,1.8348797,-52771.978,-31462.614)">
  <metadata
   id="CorelCorpID_0Corel-Layer" />
  <g
   id="_2568934880144">
   <path
   class="fil0"
   d="m 28824,17320 h -26 c -18,12 -30,14 -35,37 -4,21 -1,505 -1,538 0,43 -5,281 3,303 13,37 73,41 89,2 9,-22 2,-117 4,-150 h 1112 c 3,35 -6,136 9,158 26,40 88,25 89,-37 1,-112 0,-225 0,-337 h -1209 c -6,-37 3,-448 -3,-475 -4,-24 -18,-28 -32,-39 z"
   id="path7" />
   <path
   class="fil0"
   d="m 29269,17763 712,1 c 14,-74 -17,-144 -54,-182 -50,-51 -94,-57 -181,-57 -77,0 -432,-4 -476,1 z"
   id="path9" />
   <path
   class="fil0"
   d="m 29052,17486 c -185,48 -110,323 72,273 176,-48 110,-321 -72,-273 z"
   id="path11" />
  </g>
 </g>
</svg>
